<svg width="24" height="24" viewBox="0 0 24 24" fill="none" xmlns="http://www.w3.org/2000/svg">
<path d="M12 5.50152L11.4596 6.02162C11.601 6.16852 11.7961 6.25152 12 6.25152C12.2039 6.25152 12.399 6.16852 12.5404 6.02162L12 5.50152ZM9.42605 18.3228C7.91039 17.128 6.25307 15.9612 4.93829 14.4807C3.64922 13.0291 2.75 11.3354 2.75 9.13799H1.25C1.25 11.8035 2.3605 13.837 3.81672 15.4767C5.24723 17.0875 7.07077 18.3761 8.49742 19.5008L9.42605 18.3228ZM2.75 9.13799C2.75 6.98712 3.96537 5.18341 5.62436 4.42508C7.23607 3.68837 9.40166 3.88347 11.4596 6.02162L12.5404 4.98142C10.0985 2.44441 7.26409 2.02628 5.00076 3.06085C2.78471 4.07381 1.25 6.42592 1.25 9.13799H2.75ZM8.49742 19.5008C9.00965 19.9046 9.55954 20.3352 10.1168 20.6608C10.6739 20.9863 11.3096 21.2509 12 21.2509V19.7509C11.6904 19.7509 11.3261 19.6302 10.8736 19.3657C10.4213 19.1014 9.95208 18.7375 9.42605 18.3228L8.49742 19.5008ZM15.5026 19.5008C16.9292 18.3761 18.7528 17.0875 20.1833 15.4767C21.6395 13.837 22.75 11.8035 22.75 9.13799H21.25C21.25 11.3354 20.3508 13.0291 19.0617 14.4807C17.7469 15.9612 16.0896 17.128 14.574 18.3228L15.5026 19.5008ZM22.75 9.13799C22.75 6.42592 21.2153 4.07381 18.9992 3.06085C16.7359 2.02628 13.9015 2.44441 11.4596 4.98142L12.5404 6.02162C14.5983 3.88347 16.7639 3.68837 18.3756 4.42508C20.0346 5.18341 21.25 6.98712 21.25 9.13799H22.75ZM14.574 18.3228C14.0479 18.7375 13.5787 19.1014 13.1264 19.3657C12.6739 19.6302 12.3096 19.7509 12 19.7509V21.2509C12.6904 21.2509 13.3261 20.9863 13.8832 20.6608C14.4405 20.3352 14.9903 19.9046 15.5026 19.5008L14.574 18.3228Z" fill="#1C274C"/>
<path d="M12 6.25152C11.7961 6.25152 11.601 6.16852 11.4596 6.02162C9.40166 3.88347 7.23607 3.68837 5.62436 4.42508C3.96537 5.18341 2.75 6.98712 2.75 9.13799C2.75 11.3354 3.64922 13.0291 4.93829 14.4807C6.25307 15.9612 7.91039 17.128 9.42605 18.3228C9.95208 18.7375 10.4213 19.1014 10.8736 19.3657C11.3261 19.6302 11.6904 19.7509 12 19.7509C12.3096 19.7509 12.6739 19.6302 13.1264 19.3657C13.5787 19.1014 14.0479 18.7375 14.574 18.3228C16.0896 17.128 17.7469 15.9612 19.0617 14.4807C20.3508 13.0291 21.25 11.3354 21.25 9.13799C21.25 6.98712 20.0346 5.18341 18.3756 4.42508C16.7639 3.68837 14.5983 3.88347 12.5404 6.02162C12.399 6.16852 12.2039 6.25152 12 6.25152Z" fill="#1C274C"/>
</svg>
